<svg width="122px" height="50px" viewBox="0 0 122 50" version="1.1" xmlns="http://www.w3.org/2000/svg" xmlns:xlink="http://www.w3.org/1999/xlink">
    <!-- Generator: sketchtool 39.1 (31720) - http://www.bohemiancoding.com/sketch -->
    <title>5EB109A5-98AB-4648-B78E-7A22EFC7D1DC</title>
    <desc>Created with sketchtool.</desc>
    <defs></defs>
    <g id="-" stroke="none" stroke-width="1" fill-rule="evenodd" fill="#003366">
        <path d="M34.0941455,14.1386044 C37.3626489,3.34954595 27.5935605,-2.14826588 22.0493802,1.51826614 L22.0062138,1.51826614 C16.4633825,-2.14826588 6.69429414,3.34954595 9.96414643,14.1386044 C3.88848029,12.6635171 -3.50915584,19.8112022 1.84886945,26.7073014 C-3.99073062,34.3634546 6.06298602,42.2897315 10.7910521,41.8276081 C10.6548083,47.1810891 15.3059843,47.6458608 17.7246498,45.6543605 C19.7737033,48.4006182 22.0062138,49.5817473 22.0062138,49.5817473 L22.0493802,49.5817473 C22.0493802,49.5817473 24.2845886,48.4006182 26.3322932,45.6543605 C28.7509587,47.6458608 33.4021347,47.1810891 33.2658909,41.8276081 C37.993957,42.2897315 48.0476736,34.3634546 42.2094225,26.7073014 C47.5674478,19.8112022 40.1698117,12.6635171 34.0941455,14.1386044 M17.2201429,34.7117023 L26.8368001,34.7117023 C27.2549743,34.7117023 27.2252974,36.219893 26.8368001,36.219893 L17.2201429,36.219893 C16.8316456,36.219893 16.8019687,34.7117023 17.2201429,34.7117023 M9.65793501,32.5891126 C1.06917695,29.6892552 8.15115902,18.7413005 14.4939171,22.7229768 C18.5515555,25.3924346 19.4931219,30.5314056 19.6549958,33.6192903 L17.7246498,33.6232627 C16.9368636,28.2101955 10.4146954,28.0989681 9.65793501,32.5891126 M26.3322932,33.6232627 L24.4019472,33.6192903 C24.5638211,30.5314056 25.5053875,25.3924346 29.563026,22.7229768 C35.905784,18.7413005 42.9823703,29.6892552 34.3936122,32.5891126 C33.6368518,28.0989681 27.1187304,28.2101955 26.3322932,33.6232627 M23.4050739,33.6285592 L20.6518691,33.6285592 C20.3213766,26.1657299 16.2462018,21.2161103 16.2462018,15.6282572 C16.2462018,12.2437661 19.3406907,6.86777476 22.0089117,5.3119152 L22.0480313,5.3119152 C24.7176013,6.86777476 27.8107412,12.2437661 27.8107412,15.6282572 C27.8107412,21.2161103 23.7369154,26.1657299 23.4050739,33.6285592 M4.13264005,26.6291774 C-0.998761814,20.6043595 5.08634697,12.983958 12.6998149,16.514104 C7.52119985,6.59765106 16.3932372,-0.826778354 22.0089117,3.57729731 C17.720603,7.06771927 11.64089,13.9373358 17.0542222,23.1519968 C11.4398966,17.6396195 4.58993375,21.6411578 4.0651926,26.5126534 C3.51347248,31.6171969 7.56976202,34.8070401 11.0770293,34.5183785 C10.5253092,30.3486748 15.6432216,30.1328407 16.2866702,33.6351799 C15.5191183,34.3886132 15.5393525,35.9126935 16.1450306,36.9945124 C12.6903723,45.2120992 -3.25825133,34.9275364 4.13264005,26.6291774 M12.9965837,41.8249598 C16.0303699,41.1695126 16.9341657,38.9621782 17.6072913,37.3798359 C18.275021,37.3798359 18.7296168,37.3798359 19.4472577,37.3891049 C19.2435664,47.1810891 11.3818918,45.6940846 12.9965837,41.8249598 M22.0480313,47.2592131 L22.0089117,47.2592131 C20.6397285,46.3005388 19.7710054,45.6583329 18.8253922,44.3977557 C20.2121117,42.6088482 20.5196721,39.8109493 20.5709321,37.399698 L23.4860109,37.399698 C23.5372709,39.8109493 23.8448313,42.6088482 25.2328998,44.3977557 C24.2872865,45.6583329 23.4172145,46.3005388 22.0480313,47.2592131 M24.6096853,37.3891049 C25.3273262,37.3798359 25.781922,37.3798359 26.4496517,37.3798359 C27.1241262,38.9621782 28.0265731,41.1695126 31.0603593,41.8249598 C32.6737023,45.6940846 24.8133766,47.1810891 24.6096853,37.3891049 M27.9132614,36.9945124 C28.5175905,35.9126935 28.5391737,34.3886132 27.7716217,33.6351799 C28.4137214,30.1328407 33.527587,30.3486748 32.9758668,34.5183785 C36.4831341,34.8070401 40.5394237,31.6171969 39.9890525,26.5126534 C39.4616135,21.6411578 32.6170464,17.6396195 27.0013719,23.1519968 C32.417402,13.9373358 26.33634,7.06771927 22.0480313,3.57729731 C27.6637058,-0.826778354 36.5357432,6.59765106 31.3571281,16.514104 C38.9692471,12.983958 45.0557048,20.6043595 39.924303,26.6291774 C47.3151943,34.9275364 31.3665707,45.2120992 27.9132614,36.9945124" id="Fill-1"></path>
        <path d="M52.4760033,26.7380214 C51.7124982,26.7380214 50.9395504,26.6890283 50.6481774,26.6400353 C50.5173294,26.6201733 50.4363925,26.5420493 50.4363925,26.3937461 L50.4363925,19.6221156 C50.4363925,19.4830813 50.5173294,19.3956884 50.6481774,19.3745022 C50.9395504,19.3255092 51.7124982,19.2765161 52.4760033,19.2765161 C54.333506,19.2765161 55.5178832,20.2126802 55.5178832,22.3418905 L55.5178832,23.6739711 C55.5178832,25.7819953 54.333506,26.7380214 52.4760033,26.7380214 L52.4760033,26.7380214 Z M54.6046448,22.3418905 C54.6046448,20.5582796 53.6806147,20.045839 52.4760033,20.045839 C52.0038712,20.045839 51.6922639,20.0564321 51.3617714,20.07497 L51.3617714,25.9501606 C51.6828213,25.9700226 52.0038712,25.9700226 52.4760033,25.9700226 C53.6806147,25.9700226 54.6046448,25.446989 54.6046448,23.6739711 L54.6046448,22.3418905 Z" id="Fill-4"></path>
        <path d="M60.8060329,26.6888959 C60.4242804,26.72862 59.4408966,26.7378889 58.847359,26.7378889 C57.4431032,26.7378889 56.707926,26.2161794 56.707926,24.905285 L56.707926,21.1103118 C56.707926,19.7994174 57.4431032,19.2763837 58.847359,19.2763837 C59.4408966,19.2763837 60.3851609,19.2962458 60.8060329,19.3359698 C60.8667356,19.3465629 60.9072041,19.4140939 60.9072041,19.47368 L60.9072041,19.9662585 C60.9072041,20.0351135 60.8667356,20.0854307 60.7965903,20.0854307 L58.8581506,20.0854307 C57.7938299,20.0854307 57.6225134,20.3608509 57.6225134,21.1103118 L57.6225134,22.4807924 L60.7062107,22.4807924 C60.8168245,22.4807924 60.9072041,22.5695095 60.9072041,22.6780886 L60.9072041,23.052819 C60.9072041,23.1613982 60.8168245,23.2501153 60.7062107,23.2501153 L57.6225134,23.2501153 L57.6225134,24.905285 C57.6225134,25.6547459 57.7938299,25.9314902 58.8581506,25.9314902 L60.7965903,25.9314902 C60.8667356,25.9314902 60.9072041,25.9804833 60.9072041,26.0480142 L60.9072041,26.5511858 C60.9072041,26.6107719 60.8667356,26.679627 60.8060329,26.6888959" id="Fill-6"></path>
        <path d="M66.9419971,20.1142969 L64.9833232,20.1142969 L64.9833232,26.472797 C64.9833232,26.570783 64.9145268,26.6700932 64.803913,26.6700932 L64.2508439,26.6700932 C64.1510217,26.6700932 64.0700848,26.5813761 64.0700848,26.472797 L64.0700848,20.1142969 L62.1114109,20.1142969 C62.000797,20.1142969 61.9104175,20.0653038 61.9104175,19.9567247 L61.9104175,19.5237323 C61.9104175,19.4244221 62.000797,19.3462981 62.1114109,19.3462981 L66.9419971,19.3462981 C67.051262,19.3462981 67.1321989,19.413829 67.1321989,19.5237323 L67.1321989,19.9567247 C67.1321989,20.0560349 67.051262,20.1142969 66.9419971,20.1142969" id="Fill-8"></path>
        <path d="M73.0686535,26.7380214 C72.3051484,26.7380214 71.5322006,26.6890283 71.2408277,26.6400353 C71.1113286,26.6201733 71.0303916,26.5420493 71.0303916,26.3937461 L71.0303916,19.6221156 C71.0303916,19.4830813 71.1113286,19.3956884 71.2408277,19.3745022 C71.5322006,19.3255092 72.3051484,19.2765161 73.0686535,19.2765161 C74.9275052,19.2765161 76.1118824,20.2126802 76.1118824,22.3418905 L76.1118824,23.6739711 C76.1118824,25.7819953 74.9275052,26.7380214 73.0686535,26.7380214 L73.0686535,26.7380214 Z M75.1986439,22.3418905 C75.1986439,20.5582796 74.2732649,20.045839 73.0686535,20.045839 C72.5965214,20.045839 72.2862631,20.0564321 71.9544217,20.07497 L71.9544217,25.9501606 C72.2741226,25.9700226 72.5965214,25.9700226 73.0686535,25.9700226 C74.2732649,25.9700226 75.1986439,25.446989 75.1986439,23.6739711 L75.1986439,22.3418905 Z" id="Fill-10"></path>
        <path d="M82.2875056,26.669696 L81.7357855,26.669696 C81.6346143,26.669696 81.5550264,26.5809789 81.5550264,26.4723997 L81.5550264,23.5540044 L78.4821206,23.5540044 L78.4821206,26.4723997 C78.4821206,26.5717099 78.4119753,26.669696 78.3000125,26.669696 L77.7469434,26.669696 C77.6484701,26.669696 77.5675332,26.5717099 77.5675332,26.4723997 L77.5675332,21.3175391 C77.5675332,19.8093484 78.2811272,19.2770458 79.7272005,19.2770458 L80.3085975,19.2770458 C81.7452282,19.2770458 82.4682648,19.8093484 82.4682648,21.3175391 L82.4682648,26.4723997 C82.4682648,26.5717099 82.3873279,26.669696 82.2875056,26.669696 L82.2875056,26.669696 Z M81.5550264,21.3175391 C81.5550264,20.292658 81.2231849,20.0649066 80.3085975,20.0649066 L79.7272005,20.0649066 C78.8126131,20.0649066 78.4821206,20.292658 78.4821206,21.3175391 L78.4821206,22.7661436 L81.5550264,22.7661436 L81.5550264,21.3175391 Z" id="Fill-12"></path>
        <path d="M89.1156155,26.669696 L88.5531038,26.669696 C88.4532816,26.669696 88.3817873,26.5809789 88.3817873,26.4723997 L88.3817873,22.1159929 C88.3817873,20.399913 87.780156,20.0556376 86.5350761,20.0556376 C86.1034125,20.0556376 85.2994389,20.0953617 85.0485344,20.1138996 L85.0485344,26.4723997 C85.0485344,26.5717099 84.978389,26.669696 84.8677752,26.669696 L84.3160551,26.669696 C84.2054413,26.669696 84.1366449,26.5809789 84.1366449,26.4723997 L84.1366449,19.7312244 C84.1366449,19.483611 84.2162329,19.4147559 84.4172263,19.3856249 C84.9487122,19.3061768 86.0440587,19.2664527 86.5553104,19.2664527 C88.362902,19.2664527 89.2977236,19.9364654 89.2977236,22.1159929 L89.2977236,26.4723997 C89.2977236,26.5717099 89.2262293,26.669696 89.1156155,26.669696" id="Fill-14"></path>
        <path d="M92.6412285,26.7380214 C91.9370772,26.7380214 91.4163829,26.6691663 90.9725787,26.6003112 C90.8026111,26.5711802 90.7823769,26.5314562 90.7823769,26.422877 L90.7823769,26.0282846 C90.7823769,25.9210296 90.8633138,25.8707124 90.9536934,25.8707124 L90.9833703,25.8707124 C91.4460597,25.9104365 92.179888,25.9302985 92.6412285,25.9302985 C93.84584,25.9302985 94.1668898,25.457582 94.1668898,24.7663832 C94.1668898,24.2751288 93.8755168,23.9983844 92.9622784,23.4475439 L91.9883372,22.8649242 C91.0629582,22.3127595 90.6016177,21.8095879 90.6016177,21.0217271 C90.6016177,19.8286808 91.4757366,19.2765161 93.0027469,19.2765161 C93.5949355,19.2765161 94.3692322,19.3361023 94.7496358,19.3956884 C94.8508069,19.4142263 94.9196033,19.4632193 94.9196033,19.5625295 L94.9196033,19.9862529 C94.9196033,20.0855631 94.8508069,20.1438251 94.7496358,20.1438251 L94.7294015,20.1438251 C94.2869463,20.1146941 93.5841439,20.0855631 93.0027469,20.0855631 C91.968103,20.0855631 91.5256477,20.3013972 91.5256477,21.0217271 C91.5256477,21.4851747 91.8574892,21.7605949 92.6209943,22.2147735 L93.5450243,22.756345 C94.7105162,23.4369508 95.1219457,23.9785224 95.1219457,24.7663832 C95.1219457,25.7131403 94.6187877,26.7380214 92.6412285,26.7380214" id="Fill-16"></path>
        <path d="M101.257235,26.669696 L100.473496,26.669696 C100.383116,26.669696 100.312971,26.640565 100.252268,26.5717099 L97.4208245,23.1898671 L97.4208245,26.4723997 C97.4208245,26.5717099 97.3506792,26.669696 97.2400653,26.669696 L96.6869963,26.669696 C96.587174,26.669696 96.5075861,26.5809789 96.5075861,26.4723997 L96.5075861,19.5339281 C96.5075861,19.434618 96.587174,19.3459009 96.6964389,19.3459009 L97.2306227,19.3459009 C97.3304449,19.3459009 97.4208245,19.4240249 97.4208245,19.5339281 L97.4208245,22.7171506 L100.312971,19.434618 C100.372325,19.3750318 100.414142,19.3459009 100.513964,19.3459009 L101.237001,19.3459009 C101.336823,19.3459009 101.377292,19.3948939 101.377292,19.4531559 C101.377292,19.483611 101.367849,19.5233351 101.336823,19.552466 L98.3151777,22.9038537 L101.336823,26.4525377 C101.367849,26.4829928 101.386734,26.5319858 101.386734,26.5717099 C101.386734,26.6207029 101.347615,26.669696 101.257235,26.669696" id="Fill-18"></path>
        <path d="M106.479152,26.6888959 C106.09605,26.72862 105.114015,26.7378889 104.520478,26.7378889 C103.114873,26.7378889 102.381045,26.2161794 102.381045,24.905285 L102.381045,21.1103118 C102.381045,19.7994174 103.114873,19.2763837 104.520478,19.2763837 C105.114015,19.2763837 106.056931,19.2962458 106.479152,19.3359698 C106.539854,19.3465629 106.578974,19.4140939 106.578974,19.47368 L106.578974,19.9662585 C106.578974,20.0351135 106.539854,20.0854307 106.46836,20.0854307 L104.531269,20.0854307 C103.466949,20.0854307 103.295632,20.3608509 103.295632,21.1103118 L103.295632,22.4807924 L106.377981,22.4807924 C106.488594,22.4807924 106.578974,22.5695095 106.578974,22.6780886 L106.578974,23.052819 C106.578974,23.1613982 106.488594,23.2501153 106.377981,23.2501153 L103.295632,23.2501153 L103.295632,24.905285 C103.295632,25.6547459 103.466949,25.9314902 104.531269,25.9314902 L106.46836,25.9314902 C106.539854,25.9314902 106.578974,25.9804833 106.578974,26.0480142 L106.578974,26.5511858 C106.578974,26.6107719 106.539854,26.679627 106.479152,26.6888959" id="Fill-20"></path>
        <path d="M52.2853968,36.9807414 C51.5326833,36.9807414 50.7246628,36.9118863 50.2417391,36.8033072 C50.1419169,36.7834452 50.0515373,36.7145901 50.0515373,36.606011 L50.0515373,35.8962742 C50.0515373,35.787695 50.1419169,35.709571 50.2417391,35.709571 L50.2619734,35.709571 C50.6639601,35.7585641 51.9333211,35.8075571 52.3042821,35.8075571 C53.1986353,35.8075571 53.469774,35.4910886 53.469774,34.9203861 C53.469774,34.5363867 53.2795722,34.3390905 52.6158893,33.953767 L51.2898725,33.1751751 C50.3563998,32.6336036 50.1054953,32.0615769 50.1054953,31.3717022 C50.1054953,30.2872349 50.7489439,29.4993741 52.6158893,29.4993741 C53.2795722,29.4993741 54.2036022,29.5973602 54.5435374,29.6754842 C54.6447085,29.6966704 54.7242965,29.7642013 54.7242965,29.8635115 L54.7242965,30.5931103 C54.7242965,30.6924205 54.6541512,30.7705445 54.554329,30.7705445 L54.5340947,30.7705445 C53.8717608,30.7109584 53.2080779,30.6725585 52.5565355,30.6725585 C51.8132647,30.6725585 51.5016575,30.9281167 51.5016575,31.3717022 C51.5016575,31.6974396 51.671625,31.8947358 52.3245163,32.2496042 L53.5304767,32.9090238 C54.633917,33.5115056 54.9252899,34.1417943 54.9252899,34.9203861 C54.9252899,35.9148121 54.2939818,36.9807414 52.2853968,36.9807414" id="Fill-22"></path>
        <path d="M58.5339982,34.1718521 C58.2709532,34.1718521 57.8703153,34.141397 57.639645,34.1321281 L57.639645,36.7049239 C57.639645,36.8121789 57.560057,36.900896 57.4494432,36.900896 L56.4444763,36.900896 C56.3338624,36.900896 56.2434829,36.8121789 56.2434829,36.7049239 L56.2434829,29.9227004 C56.2434829,29.7254041 56.3635393,29.6565491 56.5645327,29.6260939 C57.0879249,29.5479699 57.798821,29.4989769 58.5339982,29.4989769 C60.0798937,29.4989769 61.4261448,30.0312795 61.4261448,31.7751663 L61.4261448,31.8652076 C61.4261448,33.6104186 60.0798937,34.1718521 58.5339982,34.1718521 L58.5339982,34.1718521 Z M60.0394252,31.7751663 C60.0394252,30.9475815 59.5376162,30.6324371 58.5339982,30.6324371 C58.3222132,30.6324371 57.8204042,30.6522992 57.639645,30.6721612 L57.639645,33.0185299 C57.798821,33.0277988 58.3626817,33.0476608 58.5339982,33.0476608 C59.6172042,33.0476608 60.0394252,32.6530684 60.0394252,31.8652076 L60.0394252,31.7751663 Z" id="Fill-24"></path>
        <path d="M66.5800741,36.8430313 C66.2603732,36.8920243 65.867829,36.9807414 64.6713113,36.9807414 C63.3668777,36.9807414 62.352468,36.635142 62.352468,34.9601102 L62.352468,31.5200054 C62.352468,29.8449736 63.3668777,29.4993741 64.6713113,29.4993741 C65.867829,29.4993741 66.2603732,29.5880912 66.5800741,29.6370843 C66.7311564,29.6569463 66.7810675,29.7046152 66.7810675,29.8449736 L66.7810675,30.4739381 C66.7810675,30.5838414 66.6906879,30.6725585 66.5800741,30.6725585 L64.5323696,30.6725585 C63.9496236,30.6725585 63.7391876,30.8685306 63.7391876,31.5200054 L63.7391876,32.5846106 L66.4600176,32.5846106 C66.5706315,32.5846106 66.661011,32.6733277 66.661011,32.7805827 L66.661011,33.4916436 C66.661011,33.6002227 66.5706315,33.6889398 66.4600176,33.6889398 L63.7391876,33.6889398 L63.7391876,34.9601102 C63.7391876,35.6102609 63.9496236,35.8075571 64.5323696,35.8075571 L66.5800741,35.8075571 C66.6906879,35.8075571 66.7810675,35.8962742 66.7810675,36.0048533 L66.7810675,36.635142 C66.7810675,36.7728521 66.7311564,36.8231692 66.5800741,36.8430313" id="Fill-26"></path>
        <path d="M69.4661504,37.749005 L68.9859246,38.5871829 C68.8739618,38.7752102 68.8132591,38.8242033 68.6729684,38.8242033 L67.6585588,38.8242033 C67.5681792,38.8242033 67.5290597,38.7752102 67.5290597,38.705031 C67.5290597,38.6666311 67.547945,38.607045 67.5789708,38.5474589 L68.1414825,37.4735847 C68.4922093,36.812841 68.5016519,36.6354068 68.5016519,35.818415 L68.5016519,29.7644661 C68.5016519,29.6664801 68.5731462,29.577763 68.6729684,29.577763 L69.7278465,29.577763 C69.8276687,29.577763 69.899163,29.6664801 69.899163,29.7644661 L69.899163,35.818415 C69.899163,36.6552688 69.8384603,37.0988543 69.4661504,37.749005" id="Fill-28"></path>
        <path d="M73.7548639,36.9807414 C73.0412699,36.9807414 72.0781203,36.9118863 71.7759557,36.8615692 C71.6059882,36.8324382 71.5156086,36.7543142 71.5156086,36.5570179 L71.5156086,29.9230976 C71.5156086,29.7258014 71.6059882,29.6476774 71.7759557,29.6158981 C72.0781203,29.5669051 73.0412699,29.4993741 73.7548639,29.4993741 C75.7634489,29.4993741 76.9073576,30.5626552 76.9073576,32.5157555 L76.9073576,33.9643601 C76.9073576,35.9148121 75.7634489,36.9807414 73.7548639,36.9807414 L73.7548639,36.9807414 Z M75.521987,32.5157555 C75.521987,31.0366958 74.7584819,30.6513723 73.7548639,30.6513723 C73.3839029,30.6513723 73.1222068,30.6725585 72.9104218,30.6818274 L72.9104218,35.7982881 C73.1222068,35.8075571 73.3839029,35.8274191 73.7548639,35.8274191 C74.7584819,35.8274191 75.521987,35.4434197 75.521987,33.9643601 L75.521987,32.5157555 Z" id="Fill-30"></path>
        <path d="M82.414172,36.8430313 C82.0931221,36.8920243 81.7005779,36.9807414 80.5067581,36.9807414 C79.2009755,36.9807414 78.1865659,36.635142 78.1865659,34.9601102 L78.1865659,31.5200054 C78.1865659,29.8449736 79.2009755,29.4993741 80.5067581,29.4993741 C81.7005779,29.4993741 82.0931221,29.5880912 82.414172,29.6370843 C82.5652542,29.6569463 82.6138164,29.7046152 82.6138164,29.8449736 L82.6138164,30.4739381 C82.6138164,30.5838414 82.5234368,30.6725585 82.414172,30.6725585 L80.3651185,30.6725585 C79.7823725,30.6725585 79.5719365,30.8685306 79.5719365,31.5200054 L79.5719365,32.5846106 L82.2941155,32.5846106 C82.4033804,32.5846106 82.4937599,32.6733277 82.4937599,32.7805827 L82.4937599,33.4916436 C82.4937599,33.6002227 82.4033804,33.6889398 82.2941155,33.6889398 L79.5719365,33.6889398 L79.5719365,34.9601102 C79.5719365,35.6102609 79.7823725,35.8075571 80.3651185,35.8075571 L82.414172,35.8075571 C82.5234368,35.8075571 82.6138164,35.8962742 82.6138164,36.0048533 L82.6138164,36.635142 C82.6138164,36.7728521 82.5652542,36.8231692 82.414172,36.8430313" id="Fill-32"></path>
        <path d="M89.4918374,36.9012933 L88.2656428,36.9012933 C88.155029,36.9012933 88.1145605,36.8033072 88.0646494,36.7053212 L86.619925,34.0729392 L86.4782854,34.0729392 C86.2179382,34.0729392 85.8159515,34.0424841 85.5839322,34.0345393 L85.5839322,36.7053212 C85.5839322,36.8125762 85.5043442,36.9012933 85.3937304,36.9012933 L84.3901124,36.9012933 C84.2794986,36.9012933 84.189119,36.8125762 84.189119,36.7053212 L84.189119,29.9230976 C84.189119,29.7258014 84.3091755,29.6569463 84.5101689,29.6264912 C85.0322121,29.5483672 85.7458061,29.4993741 86.4782854,29.4993741 C88.0255299,29.4993741 89.370432,30.0409457 89.370432,31.7265706 L89.370432,31.8152877 C89.370432,32.8600308 88.8375971,33.5115056 88.0147383,33.8266499 L89.5916596,36.7053212 C89.6118938,36.7344521 89.6118938,36.7635831 89.6118938,36.7834452 C89.6118938,36.8523002 89.5714254,36.9012933 89.4918374,36.9012933 L89.4918374,36.9012933 Z M87.9850614,31.7265706 C87.9850614,30.9863786 87.4832524,30.6725585 86.4782854,30.6725585 C86.2665004,30.6725585 85.7660403,30.6924205 85.5839322,30.7109584 L85.5839322,32.9288859 C85.7458061,32.9394789 86.3083178,32.9580168 86.4782854,32.9580168 C87.5115803,32.9580168 87.9850614,32.6825966 87.9850614,31.8152877 L87.9850614,31.7265706 Z" id="Fill-34"></path>
        <path d="M96.2263302,36.9012933 L94.8800791,36.9012933 C94.7600227,36.9012933 94.69932,36.8721623 94.6480599,36.7940383 L92.3494509,33.4320575 L92.3494509,36.7053212 C92.3494509,36.8125762 92.2590713,36.9012933 92.1484575,36.9012933 L91.1542821,36.9012933 C91.0450172,36.9012933 90.9546376,36.8125762 90.9546376,36.7053212 L90.9546376,29.7747944 C90.9546376,29.6662153 91.0450172,29.5880912 91.1542821,29.5880912 L92.1484575,29.5880912 C92.2590713,29.5880912 92.3494509,29.6662153 92.3494509,29.7747944 L92.3494509,32.9090238 L94.8099338,29.6662153 C94.8598449,29.5973602 94.9299902,29.5880912 95.0406041,29.5880912 L96.1858617,29.5880912 C96.3167098,29.5880912 96.3760635,29.6370843 96.3760635,29.7046152 C96.3760635,29.7562565 96.3463867,29.8145185 96.3059182,29.8635115 L93.7348215,33.1261821 L96.3261524,36.6947281 C96.3558293,36.7437211 96.3760635,36.7834452 96.3760635,36.8125762 C96.3760635,36.8721623 96.3261524,36.9012933 96.2263302,36.9012933" id="Fill-36"></path>
        <path d="M99.7536968,36.9758421 C98.0971875,36.9758421 96.8912271,36.0688091 96.8912271,33.8998746 L96.8912271,32.5691182 C96.8912271,30.4015079 98.0971875,29.4944748 99.7536968,29.4944748 C101.410206,29.4944748 102.616167,30.4015079 102.616167,32.5691182 L102.616167,33.8998746 C102.616167,36.0688091 101.410206,36.9758421 99.7536968,36.9758421 L99.7536968,36.9758421 Z M101.209213,32.5691182 C101.209213,31.2674927 100.73843,30.6875212 99.7536968,30.6875212 C98.7703131,30.6875212 98.2981809,31.2674927 98.2981809,32.5691182 L98.2981809,33.8998746 C98.2981809,35.2015001 98.7703131,35.7827957 99.7536968,35.7827957 C100.73843,35.7827957 101.209213,35.2015001 101.209213,33.8998746 L101.209213,32.5691182 Z" id="Fill-38"></path>
        <path d="M109.115268,36.9012933 L107.890422,36.9012933 C107.779808,36.9012933 107.73934,36.8033072 107.689429,36.7053212 L106.243355,34.0729392 L106.103065,34.0729392 C105.842718,34.0729392 105.440731,34.0424841 105.210061,34.0345393 L105.210061,36.7053212 C105.210061,36.8125762 105.129124,36.9012933 105.01851,36.9012933 L104.013543,36.9012933 C103.904278,36.9012933 103.812549,36.8125762 103.812549,36.7053212 L103.812549,29.9230976 C103.812549,29.7258014 103.933955,29.6569463 104.134948,29.6264912 C104.656991,29.5483672 105.369236,29.4993741 106.103065,29.4993741 C107.64896,29.4993741 108.995211,30.0409457 108.995211,31.7265706 L108.995211,31.8152877 C108.995211,32.8600308 108.463725,33.5115056 107.639518,33.8266499 L109.216439,36.7053212 C109.236673,36.7344521 109.236673,36.7635831 109.236673,36.7834452 C109.236673,36.8523002 109.196205,36.9012933 109.115268,36.9012933 L109.115268,36.9012933 Z M107.609841,31.7265706 C107.609841,30.9863786 107.106683,30.6725585 106.103065,30.6725585 C105.892629,30.6725585 105.389471,30.6924205 105.210061,30.7109584 L105.210061,32.9288859 C105.369236,32.9394789 105.933097,32.9580168 106.103065,32.9580168 C107.137709,32.9580168 107.609841,32.6825966 107.609841,31.8152877 L107.609841,31.7265706 Z" id="Fill-40"></path>
        <path d="M112.837827,34.1718521 C112.57748,34.1718521 112.175493,34.141397 111.944823,34.1321281 L111.944823,36.7049239 C111.944823,36.8121789 111.863886,36.900896 111.753272,36.900896 L110.749654,36.900896 C110.639041,36.900896 110.548661,36.8121789 110.548661,36.7049239 L110.548661,29.9227004 C110.548661,29.7254041 110.668717,29.6565491 110.87106,29.6260939 C111.391754,29.5479699 112.105348,29.4989769 112.837827,29.4989769 C114.385072,29.4989769 115.729974,30.0312795 115.729974,31.7751663 L115.729974,31.8652076 C115.729974,33.6104186 114.385072,34.1718521 112.837827,34.1718521 L112.837827,34.1718521 Z M114.344603,31.7751663 C114.344603,30.9475815 113.842794,30.6324371 112.837827,30.6324371 C112.626042,30.6324371 112.125582,30.6522992 111.944823,30.6721612 L111.944823,33.0185299 C112.105348,33.0277988 112.66786,33.0476608 112.837827,33.0476608 C113.922382,33.0476608 114.344603,32.6530684 114.344603,31.8652076 L114.344603,31.7751663 Z" id="Fill-42"></path>
        <path d="M118.688354,36.9807414 C117.93564,36.9807414 117.12762,36.9118863 116.644696,36.8033072 C116.544874,36.7834452 116.454494,36.7145901 116.454494,36.606011 L116.454494,35.8962742 C116.454494,35.787695 116.544874,35.709571 116.644696,35.709571 L116.66493,35.709571 C117.066917,35.7585641 118.337627,35.8075571 118.708588,35.8075571 C119.601592,35.8075571 119.87408,35.4910886 119.87408,34.9203861 C119.87408,34.5363867 119.682529,34.3390905 119.018846,33.953767 L117.694179,33.1751751 C116.759357,32.6336036 116.509801,32.0615769 116.509801,31.3717022 C116.509801,30.2872349 117.151901,29.4993741 119.018846,29.4993741 C119.682529,29.4993741 120.606559,29.5973602 120.947843,29.6754842 C121.047666,29.6966704 121.129952,29.7642013 121.129952,29.8635115 L121.129952,30.5931103 C121.129952,30.6924205 121.057108,30.7705445 120.958635,30.7705445 L120.938401,30.7705445 C120.274718,30.7109584 119.611035,30.6725585 118.959493,30.6725585 C118.216222,30.6725585 117.904615,30.9281167 117.904615,31.3717022 C117.904615,31.6974396 118.074582,31.8947358 118.728822,32.2496042 L119.933434,32.9090238 C121.039572,33.5115056 121.329596,34.1417943 121.329596,34.9203861 C121.329596,35.9148121 120.696939,36.9807414 118.688354,36.9807414" id="Fill-44"></path>
    </g>
</svg>