<svg
><g
        transform="matrix(1.3333333,0,0,-1.3333333,0,120.89333)"
        id="g10"><g
        transform="scale(0.1)"
        id="g12"><path
        id="path14"
        style="fill:#ffffff;fill-opacity:1;fill-rule:nonzero;stroke:none"
        d="M 71.6484,900.355 H 789.25 c 36.563,-1.148 65.75,-30.339 64.797,-67.199 V 105.953 C 855,69.6484 825.813,40.457 789.25,41.1523 H 71.6484 C 36.6875,40.457 7.5,69.6484 6.85156,105.953 V 833.156 C 7.5,870.016 36.6875,899.207 71.6484,900.355 v 0" /><path
        id="path16"
        style="fill:none;stroke:#231f20;stroke-width:15;stroke-linecap:butt;stroke-linejoin:miter;stroke-miterlimit:3.86369991;stroke-dasharray:none;stroke-opacity:1"
        d="M 71.6484,900.355 H 789.25 c 36.563,-1.148 65.75,-30.339 64.797,-67.199 V 105.953 C 855,69.6484 825.813,40.457 789.25,41.1523 H 71.6484 C 36.6875,40.457 7.5,69.6484 6.85156,105.953 V 833.156 C 7.5,870.016 36.6875,899.207 71.6484,900.355 Z" /><path
        id="path18"
        style="fill:#231f20;fill-opacity:1;fill-rule:nonzero;stroke:none"
        d="m 64.2734,199.555 c 0,9 5.7539,14.043 13.5,14.043 3.418,0 9,-2.7 11.336,-5.942 l 57.0626,-76.144 h 0.359 v 68.043 c 0,9 5.758,14.043 13.496,14.043 7.746,0 13.504,-5.043 13.504,-14.043 V 97.3125 c 0,-8.9961 -5.758,-14.0352 -13.504,-14.0352 -3.418,0 -8.816,2.6993 -11.336,5.9375 L 91.6328,164.457 H 91.2695 V 97.3125 c 0,-8.9961 -5.7578,-14.0352 -13.4961,-14.0352 -7.7461,0 -13.5,5.0391 -13.5,14.0352 V 199.555" /><path
        id="path20"
        style="fill:#231f20;fill-opacity:1;fill-rule:nonzero;stroke:none"
        d="m 244.629,107.035 c -22.859,0 -33.836,19.438 -33.836,41.403 0,21.777 11.336,41.394 33.836,41.394 22.5,0 33.84,-19.617 33.84,-41.394 0,-21.965 -10.981,-41.403 -33.84,-41.403 z m 0,-24.8358 c 36.898,0 61.918,28.9768 61.918,66.2388 0,36.539 -25.734,66.238 -61.918,66.238 -36.719,0 -61.918,-28.801 -61.918,-66.238 0,-37.262 25.379,-66.2388 61.918,-66.2388" /><path
        id="path22"
        style="fill:#231f20;fill-opacity:1;fill-rule:nonzero;stroke:none"
        d="m 302.594,193.973 c -0.906,2.343 -1.262,4.144 -1.262,6.66 0,7.566 6.656,12.965 13.859,12.965 6.118,0 9.903,-3.961 12.243,-8.825 l 27.898,-74.875 27.898,74.875 c 2.34,4.864 6.122,8.825 12.243,8.825 7.199,0 13.859,-5.399 13.859,-12.965 0,-2.516 -0.363,-4.317 -1.262,-6.66 L 368.652,93.7148 c -2.339,-5.7617 -5.398,-10.4375 -13.32,-10.4375 -7.918,0 -10.98,4.6758 -13.32,10.4375 L 302.594,193.973" /><path
        id="path24"
        style="fill:#231f20;fill-opacity:1;fill-rule:nonzero;stroke:none"
        d="m 445.332,186.598 h 0.359 l 16.743,-52.203 H 428.23 Z m -55.258,-84.782 c -0.363,-0.898 -1.261,-3.0621 -1.261,-5.941 0,-7.1992 6.121,-12.5977 13.32,-12.5977 7.379,0 11.16,3.961 12.961,9.5391 l 5.398,16.7386 h 50.039 l 5.403,-16.9183 c 1.8,-5.3984 5.582,-9.3594 13.136,-9.3594 6.66,0 12.426,4.8555 12.426,11.879 0,1.2617 -0.363,3.7773 -1.441,6.6597 l -35.285,97.922 c -3.055,8.637 -9.715,14.938 -19.258,14.938 -9.18,0 -16.199,-6.66 -19.262,-14.938 l -36.176,-97.922" /><path
        id="path26"
        style="fill:#231f20;fill-opacity:1;fill-rule:nonzero;stroke:none"
        d="m 587.527,196.676 c 0,-7.016 -4.679,-13.321 -12.058,-13.321 -7.383,0 -13.141,5.399 -23.942,5.399 -7.738,0 -14.757,-4.141 -14.757,-11.699 0,-18.539 60.121,-6.66 60.121,-53.098 0,-25.7382 -21.243,-41.7578 -46.086,-41.7578 -13.856,0 -43.739,3.2344 -43.739,20.1528 0,7.023 4.684,12.785 12.059,12.785 8.465,0 18.543,-7.02 30.238,-7.02 11.887,0 18.367,6.656 18.367,15.477 0,21.238 -60.125,8.461 -60.125,50.222 0,25.204 20.7,40.86 44.641,40.86 10.082,0 35.281,-3.778 35.281,-18" /><path
        id="path28"
        style="fill:#231f20;fill-opacity:1;fill-rule:nonzero;stroke:none"
        d="m 662.047,107.035 c -22.863,0 -33.844,19.438 -33.844,41.403 0,21.777 11.344,41.394 33.844,41.394 22.5,0 33.836,-19.617 33.836,-41.394 0,-21.965 -10.977,-41.403 -33.836,-41.403 z m 0,-24.8358 c 36.898,0 61.918,28.9768 61.918,66.2388 0,36.539 -25.738,66.238 -61.918,66.238 -36.719,0 -61.918,-28.801 -61.918,-66.238 0,-37.262 25.375,-66.2388 61.918,-66.2388" /><path
        id="path30"
        style="fill:#231f20;fill-opacity:1;fill-rule:nonzero;stroke:none"
        d="m 734.949,199.555 c 0,9 5.766,14.043 13.504,14.043 7.738,0 13.5,-5.043 13.5,-14.043 v -90.36 h 32.035 c 9.18,0 13.141,-6.843 12.965,-12.9606 -0.359,-5.9375 -5.043,-11.8789 -12.965,-11.8789 h -45 c -8.816,0 -14.039,5.7617 -14.039,14.7617 V 199.555" /><path
        id="path32"
        style="fill:#ed1c24;fill-opacity:1;fill-rule:nonzero;stroke:none"
        d="m 618.848,545.156 c 0.855,50.895 41.148,91.18 91.203,91.196 49.359,-0.016 89.652,-40.301 88.797,-91.196 0.855,-48.519 -39.438,-88.82 -88.797,-88.804 -50.055,-0.016 -90.348,40.285 -91.203,88.804 v 0" /><path
        id="path34"
        style="fill:none;stroke:#ed1c24;stroke-width:10;stroke-linecap:butt;stroke-linejoin:miter;stroke-miterlimit:3.86369991;stroke-dasharray:none;stroke-opacity:1"
        d="m 618.848,545.156 c 0.855,50.895 41.148,91.18 91.203,91.196 49.359,-0.016 89.652,-40.301 88.797,-91.196 0.855,-48.519 -39.438,-88.82 -88.797,-88.804 -50.055,-0.016 -90.348,40.285 -91.203,88.804 z" /><path
        id="path36"
        style="fill:#ed1c24;fill-opacity:1;fill-rule:nonzero;stroke:none"
        d="m 621.25,749.156 c -0.922,49.395 39.371,89.688 88.801,88.797 49.984,0.891 90.277,-39.402 91.199,-88.797 -0.922,-50.019 -41.215,-90.32 -91.199,-91.203 -49.43,0.883 -89.723,41.184 -88.801,91.203 v 0" /><path
        id="path38"
        style="fill:none;stroke:#ed1c24;stroke-width:10;stroke-linecap:butt;stroke-linejoin:miter;stroke-miterlimit:3.86369991;stroke-dasharray:none;stroke-opacity:1"
        d="m 621.25,749.156 c -0.922,49.395 39.371,89.688 88.801,88.797 49.984,0.891 90.277,-39.402 91.199,-88.797 -0.922,-50.019 -41.215,-90.32 -91.199,-91.203 -49.43,0.883 -89.723,41.184 -88.801,91.203 z" /><path
        id="path40"
        style="fill:#ed1c24;fill-opacity:1;fill-rule:nonzero;stroke:none"
        d="m 486.852,837.953 c 49.296,0.934 89.617,-43.492 88.796,-98.398 V 362.754 c 0.821,-55.859 -39.5,-100.274 -88.796,-100.801 -50.176,0.527 -90.5,44.942 -91.204,100.801 v 376.801 c 0.704,54.906 41.028,99.332 91.204,98.398 v 0" /><path
        id="path42"
        style="fill:none;stroke:#ed1c24;stroke-width:15;stroke-linecap:butt;stroke-linejoin:miter;stroke-miterlimit:3.86369991;stroke-dasharray:none;stroke-opacity:1"
        d="m 486.852,837.953 c 49.296,0.934 89.617,-43.492 88.796,-98.398 V 362.754 c 0.821,-55.859 -39.5,-100.274 -88.796,-100.801 -50.176,0.527 -90.5,44.942 -91.204,100.801 v 376.801 c 0.704,54.906 41.028,99.332 91.204,98.398 z" /><path
        id="path44"
        style="fill:#ed1c24;fill-opacity:1;fill-rule:nonzero;stroke:none"
        d="m 158.051,842.754 c 50.012,0.101 90.332,-44.316 91.199,-98.399 V 365.156 c -0.867,-54.285 -41.187,-98.707 -91.199,-98.402 -49.465,-0.305 -89.7854,44.117 -88.801,98.402 v 379.199 c -0.9844,54.083 39.336,98.5 88.801,98.399 v 0" /><path
        id="path46"
        style="fill:none;stroke:#ed1c24;stroke-width:15;stroke-linecap:butt;stroke-linejoin:miter;stroke-miterlimit:3.86369991;stroke-dasharray:none;stroke-opacity:1"
        d="m 158.051,842.754 c 50.012,0.101 90.332,-44.316 91.199,-98.399 V 365.156 c -0.867,-54.285 -41.187,-98.707 -91.199,-98.402 -49.465,-0.305 -89.7854,44.117 -88.801,98.402 v 379.199 c -0.9844,54.083 39.336,98.5 88.801,98.399 z" /><path
        id="path48"
        style="fill:#ed1c24;fill-opacity:1;fill-rule:nonzero;stroke:none"
        d="M 410.051,293.156 74.0469,722.754 225.25,821.152 518.051,458.754 l -108,-165.598 v 0" /><path
        id="path50"
        style="fill:none;stroke:#ed1c24;stroke-width:2.5;stroke-linecap:butt;stroke-linejoin:miter;stroke-miterlimit:3.86369991;stroke-dasharray:none;stroke-opacity:1"
        d="M 410.051,293.156 74.0469,722.754 225.25,821.152 518.051,458.754 l -108,-165.598 z" /></g></g></svg>